<mxfile host="app.diagrams.net" modified="2024-01-15T11:17:25.420Z" agent="Mozilla/5.0 (Macintosh; Intel Mac OS X 10_15_7) AppleWebKit/537.36 (KHTML, like Gecko) Chrome/120.0.0.0 Safari/537.36" etag="jHryA9DefskVkejM9eIO" version="21.6.6" type="google">
  <diagram name="Page-1" id="tU4nr7X6jZGk_fVQgfTa">
    <mxGraphModel grid="1" page="1" gridSize="10" guides="1" tooltips="1" connect="1" arrows="1" fold="1" pageScale="1" pageWidth="827" pageHeight="1169" math="0" shadow="0">
      <root>
        <mxCell id="0" />
        <mxCell id="1" parent="0" />
        <mxCell id="nF-71U3Ogo21U0fu0JN--15" style="edgeStyle=orthogonalEdgeStyle;rounded=0;orthogonalLoop=1;jettySize=auto;html=1;entryX=0.25;entryY=0;entryDx=0;entryDy=0;fillColor=#dae8fc;strokeColor=#6c8ebf;endArrow=none;endFill=0;" edge="1" parent="1" source="nF-71U3Ogo21U0fu0JN--2" target="nF-71U3Ogo21U0fu0JN--6">
          <mxGeometry relative="1" as="geometry" />
        </mxCell>
        <mxCell id="nF-71U3Ogo21U0fu0JN--2" value="" style="whiteSpace=wrap;html=1;" vertex="1" parent="1">
          <mxGeometry x="110" y="545" width="195" height="125" as="geometry" />
        </mxCell>
        <mxCell id="nF-71U3Ogo21U0fu0JN--1" value="" style="shape=image;html=1;verticalAlign=top;verticalLabelPosition=bottom;labelBackgroundColor=#ffffff;imageAspect=0;aspect=fixed;image=https://cdn4.iconfinder.com/data/icons/fruits-and-veggies-2/156/fruits-and-veggies-icons_raspberry-128.png" vertex="1" parent="1">
          <mxGeometry x="120" y="550" width="35" height="35" as="geometry" />
        </mxCell>
        <mxCell id="nF-71U3Ogo21U0fu0JN--3" value="rpi-1 (geth)" style="text;html=1;strokeColor=none;fillColor=none;align=center;verticalAlign=middle;whiteSpace=wrap;rounded=0;" vertex="1" parent="1">
          <mxGeometry x="160" y="552.5" width="100" height="30" as="geometry" />
        </mxCell>
        <mxCell id="nF-71U3Ogo21U0fu0JN--6" value="network switch" style="whiteSpace=wrap;html=1;fillColor=#dae8fc;strokeColor=#6c8ebf;" vertex="1" parent="1">
          <mxGeometry x="250" y="720" width="145" height="40" as="geometry" />
        </mxCell>
        <mxCell id="nF-71U3Ogo21U0fu0JN--14" style="edgeStyle=orthogonalEdgeStyle;rounded=0;orthogonalLoop=1;jettySize=auto;html=1;entryX=0.75;entryY=0;entryDx=0;entryDy=0;fillColor=#dae8fc;strokeColor=#6c8ebf;endArrow=none;endFill=0;" edge="1" parent="1" source="nF-71U3Ogo21U0fu0JN--8" target="nF-71U3Ogo21U0fu0JN--6">
          <mxGeometry relative="1" as="geometry" />
        </mxCell>
        <mxCell id="nF-71U3Ogo21U0fu0JN--8" value="" style="whiteSpace=wrap;html=1;" vertex="1" parent="1">
          <mxGeometry x="345" y="545" width="195" height="125" as="geometry" />
        </mxCell>
        <mxCell id="nF-71U3Ogo21U0fu0JN--9" value="" style="shape=image;html=1;verticalAlign=top;verticalLabelPosition=bottom;labelBackgroundColor=#ffffff;imageAspect=0;aspect=fixed;image=https://cdn4.iconfinder.com/data/icons/fruits-and-veggies-2/156/fruits-and-veggies-icons_raspberry-128.png" vertex="1" parent="1">
          <mxGeometry x="355" y="550" width="35" height="35" as="geometry" />
        </mxCell>
        <mxCell id="nF-71U3Ogo21U0fu0JN--10" value="rpi-2 (lighthouse)" style="text;html=1;strokeColor=none;fillColor=none;align=center;verticalAlign=middle;whiteSpace=wrap;rounded=0;" vertex="1" parent="1">
          <mxGeometry x="395" y="552.5" width="105" height="30" as="geometry" />
        </mxCell>
        <mxCell id="nF-71U3Ogo21U0fu0JN--13" style="edgeStyle=orthogonalEdgeStyle;rounded=0;orthogonalLoop=1;jettySize=auto;html=1;entryX=0;entryY=0.5;entryDx=0;entryDy=0;fillColor=#dae8fc;strokeColor=#6c8ebf;endArrow=none;endFill=0;" edge="1" parent="1" source="nF-71U3Ogo21U0fu0JN--12" target="nF-71U3Ogo21U0fu0JN--6">
          <mxGeometry relative="1" as="geometry" />
        </mxCell>
        <mxCell id="nF-71U3Ogo21U0fu0JN--12" value="control PC" style="verticalLabelPosition=bottom;html=1;verticalAlign=top;align=center;strokeColor=#6c8ebf;fillColor=#dae8fc;shape=mxgraph.azure.laptop;pointerEvents=1;" vertex="1" parent="1">
          <mxGeometry x="120" y="720" width="70" height="40" as="geometry" />
        </mxCell>
        <mxCell id="nF-71U3Ogo21U0fu0JN--22" value="USB 3" style="edgeStyle=orthogonalEdgeStyle;rounded=0;orthogonalLoop=1;jettySize=auto;html=1;shape=link;" edge="1" parent="1" source="nF-71U3Ogo21U0fu0JN--21">
          <mxGeometry relative="1" as="geometry">
            <mxPoint x="180" y="545" as="targetPoint" />
          </mxGeometry>
        </mxCell>
        <mxCell id="nF-71U3Ogo21U0fu0JN--21" value="2 TB M.2 storage&lt;br&gt;&lt;font style=&quot;font-size: 10px;&quot;&gt;&lt;i&gt;(swapfile + geth data)&lt;/i&gt;&lt;/font&gt;" style="rounded=0;whiteSpace=wrap;html=1;" vertex="1" parent="1">
          <mxGeometry x="110" y="481" width="140" height="40" as="geometry" />
        </mxCell>
        <mxCell id="nF-71U3Ogo21U0fu0JN--24" value="USB 3" style="edgeStyle=orthogonalEdgeStyle;rounded=0;orthogonalLoop=1;jettySize=auto;html=1;shape=link;" edge="1" parent="1" source="nF-71U3Ogo21U0fu0JN--23">
          <mxGeometry relative="1" as="geometry">
            <mxPoint x="414" y="545" as="targetPoint" />
          </mxGeometry>
        </mxCell>
        <mxCell id="nF-71U3Ogo21U0fu0JN--23" value="0.5 TB M.2 storage&lt;br&gt;&lt;i&gt;&lt;font style=&quot;font-size: 10px;&quot;&gt;(swapfile + lighthouse data)&lt;/font&gt;&lt;/i&gt;" style="rounded=0;whiteSpace=wrap;html=1;" vertex="1" parent="1">
          <mxGeometry x="344" y="481" width="140" height="40" as="geometry" />
        </mxCell>
        <mxCell id="nF-71U3Ogo21U0fu0JN--28" value="" style="edgeStyle=orthogonalEdgeStyle;rounded=0;orthogonalLoop=1;jettySize=auto;html=1;fillColor=#dae8fc;strokeColor=#6c8ebf;endArrow=none;endFill=0;" edge="1" parent="1" target="nF-71U3Ogo21U0fu0JN--6">
          <mxGeometry relative="1" as="geometry">
            <mxPoint x="440" y="740" as="sourcePoint" />
          </mxGeometry>
        </mxCell>
        <mxCell id="nF-71U3Ogo21U0fu0JN--36" value="Internet" style="html=1;verticalLabelPosition=bottom;align=center;labelBackgroundColor=#ffffff;verticalAlign=top;strokeWidth=2;strokeColor=#6c8ebf;shadow=0;dashed=0;shape=mxgraph.ios7.icons.globe;fillColor=#dae8fc;" vertex="1" parent="1">
          <mxGeometry x="440" y="721" width="40" height="40" as="geometry" />
        </mxCell>
        <mxCell id="nF-71U3Ogo21U0fu0JN--37" value="- active cooling&lt;br&gt;- sd card with correct image&lt;br&gt;- optionally: keyboard + screen" style="text;html=1;strokeColor=none;fillColor=none;align=left;verticalAlign=top;whiteSpace=wrap;rounded=0;" vertex="1" parent="1">
          <mxGeometry x="120" y="600" width="170" height="70" as="geometry" />
        </mxCell>
        <mxCell id="nF-71U3Ogo21U0fu0JN--38" value="- active cooling&lt;br&gt;- sd card with correct image&lt;br&gt;- optionally: keyboard + screen" style="text;html=1;strokeColor=none;fillColor=none;align=left;verticalAlign=top;whiteSpace=wrap;rounded=0;" vertex="1" parent="1">
          <mxGeometry x="355" y="600" width="170" height="70" as="geometry" />
        </mxCell>
      </root>
    </mxGraphModel>
  </diagram>
</mxfile>
